# xmcd CD database file
#
# Track frame offsets:
#	150
#	23853
#	52977
#	71178
#	90499
#	121113
#	142914
#	162301
#	184671
#
# Disc length: 2709 seconds
#
# Revision: 0
# Processed by: cddbd v1.5.2PL0 Copyright (c) Steve Scherf et al.
# Submitted via: CDex 1.70beta2
#
DISCID=700a9309
DTITLE=A Contra Blues - A Contra Blues
DYEAR=2008
DGENRE=Blues
TTITLE0=Crossroads
TTITLE1=Georgia on my mind
TTITLE2=You dont't love me
TTITLE3=Country boy
TTITLE4=Don't think twice it's all right
TTITLE5=Rockin' horse
TTITLE6=Just Because
TTITLE7=Alabama Jubilee
TTITLE8=Nobody knows you when you're down and out
EXTD=YEAR: 2008
EXTT0=
EXTT1=
EXTT2=
EXTT3=
EXTT4=
EXTT5=
EXTT6=
EXTT7=
EXTT8=
PLAYORDER=
